<svg width="41" height="41" viewBox="0 0 41 41" fill="none" xmlns="http://www.w3.org/2000/svg">
<g clip-path="url(#clip0_8_431)">
<path d="M39.1233 35.2666V35.1333C39.1233 32.7333 38.4122 30.5555 36.99 28.6C35.5678 26.6444 33.7011 25.3111 31.39 24.6C31.2122 23.9777 30.8567 23.5111 30.3233 23.2C29.79 22.8888 29.2122 22.7333 28.59 22.7333H28.4567V17.5333C28.4567 16.2888 28.19 15.0888 27.6567 13.9333L26.7233 12.0666C26.2789 11.1777 26.0122 10.1555 25.9233 8.99995V3.26662C26.0122 3.08884 25.9233 2.91106 25.6567 2.73328L21.2567 0.333282C21.0789 0.155506 20.9011 0.111061 20.7233 0.199947C18.8567 0.99995 16.8789 1.39995 14.79 1.39995C12.7011 1.39995 10.6789 0.99995 8.72332 0.199947C8.54555 0.111061 8.36777 0.155506 8.18999 0.333282L3.78999 2.73328C3.61221 2.91106 3.52332 3.08884 3.52332 3.26662V8.99995C3.52332 10.1555 3.25666 11.1777 2.72332 12.0666L1.78999 13.9333C1.25666 15.0888 0.98999 16.2888 0.98999 17.5333V33.2666C0.98999 33.4444 1.05666 33.6 1.18999 33.7333C1.32332 33.8666 1.47888 33.9333 1.65666 33.9333H16.7233L16.59 35.2666C15.9678 35.4444 15.5011 35.8 15.19 36.3333C14.8789 36.8666 14.7455 37.4444 14.79 38.0666C14.8344 38.6888 15.1011 39.2 15.59 39.6C16.0789 40 16.6344 40.2 17.2567 40.2H38.4567C39.0789 40.2 39.6344 40 40.1233 39.6C40.6122 39.2 40.9011 38.6888 40.99 38.0666C41.0789 37.4444 40.9455 36.8666 40.59 36.3333C40.2344 35.8 39.7455 35.4444 39.1233 35.2666ZM37.9233 35.1333H17.9233C17.8344 33.1777 18.3678 31.3555 19.5233 29.6666C20.6789 27.9777 22.19 26.7333 24.0567 25.9333L25.1233 32.4666C25.2122 32.9111 25.4344 33.2666 25.79 33.5333C26.1455 33.8 26.5455 33.9333 26.99 33.9333H28.7233C29.1678 33.9333 29.5678 33.8 29.9233 33.5333C30.2789 33.2666 30.5011 32.9111 30.59 32.4666L31.6567 25.9333C33.5233 26.7333 35.0344 27.9777 36.19 29.6666C37.3455 31.3555 37.9233 33.2222 37.9233 35.2666V35.1333ZM2.18999 22.7333H14.0567V25.1333H2.18999V22.7333ZM2.18999 19H14.0567V21.4H2.18999V19ZM24.7233 23.7999C24.5455 24.0666 24.4122 24.3333 24.3233 24.6C23.79 24.7777 23.2567 25 22.7233 25.2666H15.39V22.7333H27.1233C26.1455 22.7333 25.3455 23.0888 24.7233 23.7999ZM27.2567 21.4H15.39V19H27.2567V21.4ZM2.18999 26.4666H14.0567V29H2.18999V26.4666ZM15.39 26.4666H20.7233C19.8344 27.1777 19.0789 28.0222 18.4567 29H15.39V26.4666ZM30.0567 24.6C30.4122 25.0444 30.5455 25.5777 30.4567 26.2L29.2567 32.2C29.2567 32.5555 29.0789 32.7333 28.7233 32.7333H26.99C26.6344 32.7333 26.4567 32.5555 26.4567 32.2L25.2567 26.2C25.1678 25.5777 25.3011 25.0444 25.6567 24.6C26.0122 24.1555 26.5011 23.9333 27.1233 23.9333H28.59C29.2122 23.9333 29.7011 24.1555 30.0567 24.6ZM25.6567 12.7333L26.4567 14.4666C26.99 15.4444 27.2567 16.4666 27.2567 17.5333V17.6666H15.39V11.6666L21.2567 1.66661L24.7233 3.66661V8.99995C24.7233 10.3333 25.0344 11.5777 25.6567 12.7333ZM19.6567 1.93328L14.7233 10.1999L9.92332 1.93328C13.1233 2.91106 16.3678 2.91106 19.6567 1.93328ZM2.98999 14.4666L3.92332 12.7333C4.45666 11.5777 4.72332 10.3333 4.72332 8.99995V3.66661L8.32332 1.66661L14.0567 11.6666V17.6666H2.18999V17.5333C2.18999 16.4666 2.45666 15.4444 2.98999 14.4666ZM2.18999 32.7333V30.2H14.0567V32.7333H2.18999ZM15.39 32.7333V30.2H17.79C17.3455 31 17.0344 31.8444 16.8567 32.7333H15.39ZM38.4567 39H17.2567C16.9011 39 16.59 38.8666 16.3233 38.6C16.0567 38.3333 15.9233 38.0222 15.9233 37.6666C15.9233 37.3111 16.0567 37.0222 16.3233 36.8C16.59 36.5777 16.9011 36.4666 17.2567 36.4666H38.4567C38.8122 36.4666 39.1233 36.5777 39.39 36.8C39.6567 37.0222 39.79 37.3111 39.79 37.6666C39.79 38.0222 39.6567 38.3333 39.39 38.6C39.1233 38.8666 38.8122 39 38.4567 39Z" fill="#63AB45"/>
</g>
<defs>
<clipPath id="clip0_8_431">
<rect width="40.02" height="40" fill="white" transform="matrix(1 0 0 -1 0.97998 40.2)"/>
</clipPath>
</defs>
</svg>
